<svg xmlns="http://www.w3.org/2000/svg" xmlns:xlink="http://www.w3.org/1999/xlink">
  <symbol id="logo" viewBox="0 0 44 44">
    <path d="M29.2188 22C29.2188 25.9868 25.9868 29.2188 22 29.2188C18.0132 29.2188 14.7812 25.9868 14.7812 22C14.7812 18.0132 18.0132 14.7812 22 14.7812C25.9868 14.7812 29.2188 18.0132 29.2188 22Z" fill="black"/>
    <path fill-rule="evenodd" clip-rule="evenodd" d="M42.9931 25.0938C43.4109 25.0938 43.7328 25.4642 43.6597 25.8756C41.8288 36.1776 32.8279 44 22 44C9.84974 44 0 34.1503 0 22C0 9.84974 9.84974 0 22 0C32.8279 0 41.8288 7.82244 43.6597 18.1244C43.7328 18.5358 43.4109 18.9062 42.9931 18.9062H34.1615C33.8497 18.9062 33.5789 18.6956 33.4857 18.3981C31.9548 13.5115 27.3914 9.966 22 9.966C15.3538 9.966 9.966 15.3538 9.966 22C9.966 28.6462 15.3538 34.034 22 34.034C27.3914 34.034 31.9548 30.4885 33.4857 25.6019C33.5789 25.3044 33.8497 25.0938 34.1615 25.0938H42.9931Z" fill="black"/>
  </symbol>

  <symbol id="header-icon1" viewBox="0 0 21 20">
    <path d="M10.5142 0.967773C5.01616 0.967773 0.51416 4.96877 0.51416 9.96777C0.51416 11.5398 0.956166 13.0678 1.79517 14.4048C2.24617 15.1238 2.28815 16.1468 1.60815 17.5298C1.29915 18.1578 1.72417 18.9018 2.42017 18.9678C3.77717 19.0968 4.92315 18.8688 6.48315 18.2178C7.72515 18.7018 9.13016 18.9678 10.5142 18.9678C16.0122 18.9678 20.5142 14.9658 20.5142 9.96777C20.5142 4.96877 16.0122 0.967773 10.5142 0.967773ZM10.5142 2.96777C14.9572 2.96777 18.5142 6.12977 18.5142 9.96777C18.5142 13.8058 14.9572 16.9678 10.5142 16.9678C9.23516 16.9678 8.00116 16.7138 6.88916 16.2178C6.63216 16.1028 6.33416 16.1048 6.07616 16.2178C5.15616 16.6208 4.63516 16.8408 3.95216 16.9368C4.33016 15.6318 4.05215 14.2498 3.48315 13.3428C2.84115 12.3198 2.51416 11.1578 2.51416 9.96777C2.51416 6.12977 6.07116 2.96777 10.5142 2.96777ZM6.51416 6.99878C5.96216 6.99878 5.51416 7.44678 5.51416 7.99878C5.51416 8.55078 5.96216 8.99878 6.51416 8.99878H14.5142C15.0662 8.99878 15.5142 8.55078 15.5142 7.99878C15.5142 7.44678 15.0662 6.99878 14.5142 6.99878H6.51416ZM6.51416 10.9988C5.96216 10.9988 5.51416 11.4468 5.51416 11.9988C5.51416 12.5508 5.96216 12.9988 6.51416 12.9988H11.5142C12.0662 12.9988 12.5142 12.5508 12.5142 11.9988C12.5142 11.4468 12.0662 10.9988 11.5142 10.9988H6.51416Z" fill="black"/>
  </symbol>

  <symbol id="header-icon2" viewBox="0 0 19 20">
    <path d="M9.49073 0.998779C8.93873 0.998779 8.49073 1.44648 8.49073 1.99878V12.5608L5.49073 9.59278L4.08472 10.9988L8.77174 15.7178C9.16274 16.1078 9.81872 16.1078 10.2097 15.7178L14.8967 10.9988L13.4907 9.59278L10.4907 12.5608V1.99878C10.4907 1.44648 10.0427 0.998679 9.49073 0.998779ZM1.49072 12.9988C0.938723 12.9988 0.490723 13.4468 0.490723 13.9988V15.9988C0.490723 18.2078 2.28172 19.9988 4.49073 19.9988H14.4907C16.6997 19.9988 18.4907 18.2078 18.4907 15.9988V13.9988C18.4907 13.4468 18.0427 12.9988 17.4907 12.9988C16.9387 12.9988 16.4907 13.4468 16.4907 13.9988V15.9988C16.4907 17.1038 15.5957 17.9988 14.4907 17.9988H4.49073C3.38573 17.9988 2.49072 17.1038 2.49072 15.9988V13.9988C2.49072 13.4468 2.04272 12.9988 1.49072 12.9988Z" fill="black"/>
  </symbol>

  <symbol id="about" viewBox="0 0 24 19">
    <path d="M23.3242 6.47266L20.125 0.847656C19.9141 0.496094 19.5625 0.25 19.1406 0.25H5.32422C4.9375 0.25 4.55078 0.496094 4.33984 0.847656L1.14062 6.47266C0.71875 7.21094 1.24609 8.125 2.125 8.125H3.25V17.0195C3.25 17.7227 3.74219 18.25 4.375 18.25H13.375C13.9727 18.25 14.5 17.7227 14.5 17.0195V8.125H19.5625V17.6875C19.5625 18.0039 19.8086 18.25 20.125 18.25H20.6875C20.9688 18.25 21.25 18.0039 21.25 17.6875V8.125H22.375C23.2188 8.125 23.7461 7.21094 23.3242 6.47266ZM12.8125 16.5625H4.9375V13.2227H12.8125V16.5625ZM12.8125 11.5352H4.9375V8.125H12.8125V11.5352ZM3.07422 6.4375L5.64062 1.9375H18.8242L21.3906 6.4375H3.07422Z" fill="#303030"/>
  </symbol>

  <symbol id="download" viewBox="0 0 18 14">
    <path d="M16.3125 2.75H9.5625L7.62891 0.851562C7.45312 0.675781 7.10156 0.5 6.82031 0.5H1.6875C0.738281 0.5 0 1.27344 0 2.1875V12.3125C0 13.2617 0.738281 14 1.6875 14H16.3125C17.2266 14 18 13.2617 18 12.3125V4.4375C18 3.52344 17.2266 2.75 16.3125 2.75ZM16.3125 12.3125H1.6875V2.1875H6.60938L8.15625 3.73438V7.25H6.43359C6.1875 7.25 6.01172 7.46094 6.01172 7.67188C6.01172 7.77734 6.04688 7.91797 6.11719 7.98828L8.68359 10.5195C8.75391 10.5898 8.89453 10.625 9 10.625C9.07031 10.625 9.21094 10.5898 9.31641 10.5195L11.8477 7.98828C11.918 7.91797 11.9531 7.77734 11.9531 7.67188C11.9531 7.46094 11.7773 7.28516 11.5312 7.25H9.84375V4.4375H16.3125V12.3125Z" fill="#303030"/>
  </symbol>

  <symbol id="rss" viewBox="1 4 20 20">
    <circle cx="6.18" cy="17.82" r="2.18"/><path d="M4 4.44v2.83c7.03 0 12.73 5.7 12.73 12.73h2.83c0-8.59-6.97-15.56-15.56-15.56zm0 5.66v2.83c3.9 0 7.07 3.17 7.07 7.07h2.83c0-5.47-4.43-9.9-9.9-9.9z"/>
  </symbol>

  <symbol id="discounts" viewBox="0 0 18 19">
    <path d="M11.9883 6.64844L11.6016 6.26172C11.3906 6.05078 11.0039 6.05078 10.793 6.26172L5.97656 11.0781C5.76562 11.2891 5.76562 11.6758 5.97656 11.8867L6.36328 12.2734C6.57422 12.4844 6.96094 12.4844 7.17188 12.2734L11.9883 7.45703C12.1992 7.24609 12.1992 6.85938 11.9883 6.64844ZM6.75 8.125C7.34766 8.125 7.875 7.63281 7.875 7C7.875 6.40234 7.34766 5.875 6.75 5.875C6.11719 5.875 5.625 6.40234 5.625 7C5.625 7.63281 6.11719 8.125 6.75 8.125ZM11.25 10.375C10.6172 10.375 10.125 10.9023 10.125 11.5C10.125 12.1328 10.6172 12.625 11.25 12.625C11.8477 12.625 12.375 12.1328 12.375 11.5C12.375 10.9023 11.8477 10.375 11.25 10.375ZM18 9.25C18 7.98438 17.332 6.85938 16.3477 6.22656C16.5938 5.06641 16.2422 3.80078 15.3633 2.88672C14.4492 2.00781 13.1836 1.65625 12.0234 1.90234C11.3906 0.917969 10.2656 0.25 9 0.25C7.69922 0.25 6.57422 0.917969 5.94141 1.90234C4.78125 1.65625 3.51562 2.00781 2.63672 2.88672C1.72266 3.80078 1.37109 5.06641 1.61719 6.22656C0.632812 6.85938 0 7.98438 0 9.25C0 10.5508 0.632812 11.6758 1.61719 12.3086C1.37109 13.4688 1.72266 14.7344 2.63672 15.6133C3.51562 16.5273 4.78125 16.8789 5.94141 16.6328C6.57422 17.6172 7.69922 18.25 9 18.25C10.2656 18.25 11.3906 17.6172 12.0234 16.6328C13.1836 16.8789 14.4492 16.5273 15.3633 15.6133C16.2422 14.7344 16.5938 13.4688 16.3477 12.3086C17.332 11.6758 18 10.5508 18 9.25ZM14.168 11.4297C14.4844 12.1328 15.2578 13.3633 14.168 14.4531C13.1836 15.4375 12.1992 14.9453 11.1445 14.4531C10.8633 15.1914 10.5117 16.5625 9 16.5625C7.38281 16.5625 7.06641 15.0859 6.82031 14.4531C6.08203 14.8047 4.88672 15.5078 3.79688 14.418C2.67188 13.293 3.51562 12.0273 3.79688 11.4297C3.05859 11.1484 1.6875 10.7969 1.6875 9.25C1.6875 7.66797 3.16406 7.35156 3.79688 7.10547C3.48047 6.40234 2.74219 5.17188 3.83203 4.08203C4.95703 2.95703 6.22266 3.80078 6.82031 4.08203C7.10156 3.34375 7.45312 1.9375 9 1.9375C10.582 1.9375 10.8984 3.44922 11.1445 4.08203C11.8477 3.76562 13.0781 3.02734 14.168 4.11719C15.293 5.24219 14.4492 6.50781 14.168 7.10547C14.9062 7.38672 16.2773 7.73828 16.2773 9.28516C16.2773 10.8672 14.8008 11.1836 14.168 11.4297Z" fill="#303030"/>
  </symbol>

  <symbol id="faq" viewBox="0 0 18 18">
    <path d="M9 0.53125C4.18359 0.53125 0.28125 4.46875 0.28125 9.25C0.28125 14.0664 4.18359 17.9688 9 17.9688C13.7812 17.9688 17.7188 14.0664 17.7188 9.25C17.7188 4.46875 13.7812 0.53125 9 0.53125ZM9 16.2812C5.09766 16.2812 1.96875 13.1523 1.96875 9.25C1.96875 5.38281 5.09766 2.21875 9 2.21875C12.8672 2.21875 16.0312 5.38281 16.0312 9.25C16.0312 13.1523 12.8672 16.2812 9 16.2812ZM12.7617 7.31641C12.7617 5.55859 10.8984 4.1875 9.17578 4.1875C7.52344 4.1875 6.46875 4.89062 5.66016 6.12109C5.51953 6.29688 5.55469 6.54297 5.73047 6.68359L6.71484 7.42188C6.89062 7.5625 7.17188 7.52734 7.3125 7.35156C7.83984 6.68359 8.22656 6.29688 9.03516 6.29688C9.66797 6.29688 10.4414 6.68359 10.4414 7.31641C10.4414 7.77344 10.0547 7.98438 9.42188 8.33594C8.71875 8.75781 7.76953 9.25 7.76953 10.5156V10.7969C7.76953 11.043 7.94531 11.2188 8.19141 11.2188H9.77344C10.0195 11.2188 10.1953 11.043 10.1953 10.7969V10.5859C10.1953 9.70703 12.7617 9.67188 12.7617 7.31641ZM10.4766 13.1875C10.4766 12.3789 9.80859 11.7109 9 11.7109C8.15625 11.7109 7.52344 12.3789 7.52344 13.1875C7.52344 14.0312 8.15625 14.6641 9 14.6641C9.80859 14.6641 10.4766 14.0312 10.4766 13.1875Z" fill="#303030"/>
  </symbol>

  <symbol id="star" viewBox="0 0 47.94 47.94">
    <path d="M26.285,2.486l5.407,10.956c0.376,0.762,1.103,1.29,1.944,1.412l12.091,1.757
    c2.118,0.308,2.963,2.91,1.431,4.403l-8.749,8.528c-0.608,0.593-0.886,1.448-0.742,2.285l2.065,12.042
    c0.362,2.109-1.852,3.717-3.746,2.722l-10.814-5.685c-0.752-0.395-1.651-0.395-2.403,0l-10.814,5.685
    c-1.894,0.996-4.108-0.613-3.746-2.722l2.065-12.042c0.144-0.837-0.134-1.692-0.742-2.285l-8.749-8.528
    c-1.532-1.494-0.687-4.096,1.431-4.403l12.091-1.757c0.841-0.122,1.568-0.65,1.944-1.412l5.407-10.956
    C22.602,0.567,25.338,0.567,26.285,2.486z"/>
  </symbol>

  <symbol id="comments" viewBox="0 0 24 24">
    <path d="M4.82698 7.13803L5.27248 7.36502L4.82698 7.13803ZM5.2682 18.7318L5.62175 19.0854H5.62175L5.2682 18.7318ZM17.862 16.173L17.635 15.7275L17.862 16.173ZM19.173 14.862L18.7275 14.635L19.173 14.862ZM19.173 7.13803L18.7275 7.36502V7.36502L19.173 7.13803ZM17.862 5.82698L18.089 5.38148V5.38148L17.862 5.82698ZM6.13803 5.82698L6.36502 6.27248L6.13803 5.82698ZM7.20711 16.7929L7.56066 17.1464L7.20711 16.7929ZM5 10.3C5 9.45167 5.00039 8.84549 5.03921 8.37032C5.07756 7.90099 5.15089 7.60366 5.27248 7.36502L4.38148 6.91103C4.17609 7.31413 4.08593 7.75771 4.04253 8.28889C3.99961 8.81423 4 9.46817 4 10.3H5ZM5 11.5V10.3H4V11.5H5ZM4 11.5V16.5H5V11.5H4ZM4 16.5V18.4136H5V16.5H4ZM4 18.4136C4 19.26 5.02329 19.6838 5.62175 19.0854L4.91465 18.3782C4.91754 18.3753 4.92812 18.368 4.94323 18.3654C4.9556 18.3632 4.96421 18.3654 4.96913 18.3674C4.97406 18.3695 4.98164 18.374 4.98888 18.3843C4.99771 18.3968 5 18.4095 5 18.4136H4ZM5.62175 19.0854L7.56066 17.1464L6.85355 16.4393L4.91465 18.3782L5.62175 19.0854ZM14.7 16H7.91421V17H14.7V16ZM17.635 15.7275C17.3963 15.8491 17.099 15.9224 16.6297 15.9608C16.1545 15.9996 15.5483 16 14.7 16V17C15.5318 17 16.1858 17.0004 16.7111 16.9575C17.2423 16.9141 17.6859 16.8239 18.089 16.6185L17.635 15.7275ZM18.7275 14.635C18.4878 15.1054 18.1054 15.4878 17.635 15.7275L18.089 16.6185C18.7475 16.283 19.283 15.7475 19.6185 15.089L18.7275 14.635ZM19 11.7C19 12.5483 18.9996 13.1545 18.9608 13.6297C18.9224 14.099 18.8491 14.3963 18.7275 14.635L19.6185 15.089C19.8239 14.6859 19.9141 14.2423 19.9575 13.7111C20.0004 13.1858 20 12.5318 20 11.7H19ZM19 10.3V11.7H20V10.3H19ZM18.7275 7.36502C18.8491 7.60366 18.9224 7.90099 18.9608 8.37032C18.9996 8.84549 19 9.45167 19 10.3H20C20 9.46817 20.0004 8.81423 19.9575 8.28889C19.9141 7.75771 19.8239 7.31413 19.6185 6.91103L18.7275 7.36502ZM17.635 6.27248C18.1054 6.51217 18.4878 6.89462 18.7275 7.36502L19.6185 6.91103C19.283 6.25247 18.7475 5.71703 18.089 5.38148L17.635 6.27248ZM14.7 6C15.5483 6 16.1545 6.00039 16.6297 6.03921C17.099 6.07756 17.3963 6.15089 17.635 6.27248L18.089 5.38148C17.6859 5.17609 17.2423 5.08593 16.7111 5.04253C16.1858 4.99961 15.5318 5 14.7 5V6ZM9.3 6H14.7V5H9.3V6ZM6.36502 6.27248C6.60366 6.15089 6.90099 6.07756 7.37032 6.03921C7.84549 6.00039 8.45167 6 9.3 6V5C8.46817 5 7.81423 4.99961 7.28889 5.04253C6.75771 5.08593 6.31413 5.17609 5.91103 5.38148L6.36502 6.27248ZM5.27248 7.36502C5.51217 6.89462 5.89462 6.51217 6.36502 6.27248L5.91103 5.38148C5.25247 5.71703 4.71703 6.25247 4.38148 6.91103L5.27248 7.36502ZM7.56066 17.1464C7.65443 17.0527 7.78161 17 7.91421 17V16C7.51639 16 7.13486 16.158 6.85355 16.4393L7.56066 17.1464Z"/>
    <path d="M8.5 9.5L15.5 9.5" stroke="#9fa4bc" stroke-linecap="round" stroke-linejoin="round"/>
    <path d="M8.5 12.5L13.5 12.5" stroke="#9fa4bc" stroke-linecap="round" stroke-linejoin="round"/>
  </symbol>

  <symbol id="chat" viewBox="0 0 24 24">
    <path d="M8 12H8.01M12 12H12.01M16 12H16.01M21 12C21 16.4183 16.9706 20 12 20C10.4607 20 9.01172 19.6565 7.74467 19.0511L3 20L4.39499 16.28C3.51156 15.0423 3 13.5743 3 12C3 7.58172 7.02944 4 12 4C16.9706 4 21 7.58172 21 12Z" stroke="#3b71fe" stroke-width="2" stroke-linecap="round" stroke-linejoin="round"/>
  </symbol>

  <symbol id="telegram" viewBox="0 0 24 24">
    <path d="M9.78,18.65L10.06,14.42L17.74,7.5C18.08,7.19 17.67,7.04 17.22,7.31L7.74,13.3L3.64,12C2.76,11.75 2.75,11.14 3.84,10.7L19.81,4.54C20.54,4.21 21.24,4.72 20.96,5.84L18.24,18.65C18.05,19.56 17.5,19.78 16.74,19.36L12.6,16.3L10.61,18.23C10.38,18.46 10.19,18.65 9.78,18.65Z" />
  </symbol>

  <symbol id="mail" viewBox="0 0 500 500">
    <g stroke="none" stroke-width="1" fill="none" fill-rule="evenodd">
      <path d="M450,85 C474.604286,85 494.596586,104.746257 494.993971,129.255843 L495,130 L495,400 C495,424.604286 475.253743,444.596586 450.744157,444.993971 L450,445 L50,445 C25.3957144,445 5.40341429,425.253743 5.00602871,400.744157 L5,400 L5,130 C5,105.395714 24.7462573,85.4034143 49.2558427,85.0060287 L50,85 L450,85 Z M35,155.082 L35,400 C35,408.179407 41.5467864,414.82973 49.6861718,414.996782 L50,415 L450,415 C458.179407,415 464.82973,408.453214 465,400.313828 L465,400 L465,160.96 L281.172026,278.531557 C265.202004,290.737409 243.098432,290.859467 227.005739,278.897732 L226.519934,278.531557 L35,155.082 Z M456.923093,118.338123 L50.7709889,118.338123 L50.655764,118.440352 C50.4954932,118.586648 50.3417253,118.7403 50.1947282,118.900667 L49.9793441,119.146173 L49.7747976,119.401748 C47.3730471,122.544176 47.9082197,127.009229 50.9399088,129.500338 L51.1457151,129.663451 L244.737298,254.696128 C250.01839,258.732455 257.311675,258.804532 262.664631,254.91236 L262.954662,254.696128 L456.546245,129.663451 C457.461912,128.963609 458.198212,128.058405 458.696853,127.022636 L458.82691,126.736973 L458.933564,126.475168 C460.013463,123.673134 459.251256,120.583095 457.200296,118.592086 L457.00426,118.408691 L456.923093,118.338123 Z" id="Shape" fill="#000000" fill-rule="nonzero"></path>
    </g>
  </symbol>

  <symbol id="phone" viewBox="0 0 36 36">
    <path class="clr-i-solid clr-i-solid-path-1" d="M15.22,20.64a20.37,20.37,0,0,0,7.4,4.79l3.77-3a.67.67,0,0,1,.76,0l7,4.51a2,2,0,0,1,.33,3.18l-3.28,3.24a4,4,0,0,1-3.63,1.07,35.09,35.09,0,0,1-17.15-9A33.79,33.79,0,0,1,1.15,8.6a3.78,3.78,0,0,1,1.1-3.55l3.4-3.28a2,2,0,0,1,3.12.32L13.43,9a.63.63,0,0,1,0,.75l-3.07,3.69A19.75,19.75,0,0,0,15.22,20.64Z"></path>
    <rect x="0" y="0" fill-opacity="0"/>
  </symbol>
</svg>